<?xml version="1.0" encoding="UTF-8"?>
<!DOCTYPE svg PUBLIC "-//W3C//DTD SVG 1.1//EN" "http://www.w3.org/Graphics/SVG/1.1/DTD/svg11.dtd">
<!-- Creator: CorelDRAW X6 -->
<svg xmlns="http://www.w3.org/2000/svg" xml:space="preserve" width="63.07mm" height="71.494mm" version="1.1" style="shape-rendering:geometricPrecision; text-rendering:geometricPrecision; image-rendering:optimizeQuality; fill-rule:evenodd; clip-rule:evenodd"
viewBox="0 0 6307 7149"
 xmlns:xlink="http://www.w3.org/1999/xlink">
 <defs>
  <style type="text/css">
   <![CDATA[
    .fil2 {fill:#00A0E3}
    .fil3 {fill:#E31E24}
    .fil0 {fill:#FEFEFE}
    .fil1 {fill:black;fill-rule:nonzero}
   ]]>
  </style>
 </defs>
 <g id="Слой_x0020_1">
  <metadata id="CorelCorpID_0Corel-Layer"/>
  <g id="_197025808">
   <g>
    <path class="fil0" d="M559 4571c-276,2 -491,223 -491,505 0,283 220,497 510,498 274,1 495,-231 495,-517 -1,-264 -237,-488 -514,-486z"/>
    <path id="1" class="fil1" d="M119 5077l-101 0 0 0 1 -29 2 -28 3 -28 5 -27 6 -27 7 -26 8 -26 10 -25 11 -25 12 -24 13 -23 14 -23 15 -22 16 -21 17 -20 18 -19 19 -18 20 -17 20 -16 21 -15 22 -14 23 -13 23 -12 24 -11 25 -10 25 -9 26 -7 26 -6 27 -5 27 -4 28 -2 28 -1 1 101 -23 1 -23 2 -22 3 -22 4 -22 5 -21 6 -21 7 -20 8 -20 9 -19 10 -18 11 -18 12 -17 13 -17 13 -16 14 -15 15 -14 16 -14 16 -13 17 -12 18 -11 18 -11 19 -10 20 -9 20 -8 21 -7 21 -6 22 -5 22 -4 23 -3 23 -2 23 -1 24 0 0zm460 447l0 101 0 0 -29 -1 -29 -2 -28 -3 -28 -5 -27 -6 -27 -7 -26 -8 -26 -10 -25 -11 -24 -12 -24 -13 -23 -14 -22 -15 -21 -16 -20 -17 -19 -18 -18 -19 -17 -20 -16 -21 -15 -21 -14 -22 -13 -23 -12 -24 -11 -24 -10 -25 -9 -26 -7 -26 -6 -27 -5 -27 -3 -28 -2 -28 -1 -29 101 0 1 24 2 23 3 23 4 22 5 22 6 21 7 21 8 20 9 20 10 19 11 19 12 18 12 17 13 17 14 16 15 15 16 15 16 14 17 13 18 12 19 11 19 11 20 10 21 9 21 8 22 7 22 6 23 5 23 4 24 3 24 2 25 1 0 0zm444 -466l101 0 0 0 -1 29 -2 29 -3 28 -5 28 -6 27 -7 27 -8 26 -10 26 -11 25 -12 24 -13 24 -14 23 -15 22 -16 21 -17 21 -18 20 -19 19 -20 18 -21 17 -21 16 -22 15 -23 14 -24 13 -24 11 -25 10 -25 9 -26 8 -27 6 -27 5 -27 4 -28 2 -28 1 0 -101 23 -1 23 -2 22 -3 22 -4 21 -5 21 -6 21 -7 20 -8 20 -9 19 -10 19 -11 18 -12 17 -13 17 -14 16 -15 15 -15 15 -16 14 -17 13 -18 12 -18 12 -19 11 -20 10 -20 9 -21 8 -21 7 -22 6 -22 5 -23 4 -23 3 -23 2 -24 1 -24 0 0zm-464 -436l-1 -101 0 0 28 1 28 2 28 3 27 5 27 6 26 7 26 8 25 10 25 11 24 12 24 13 23 14 22 15 21 16 21 17 20 18 19 19 18 19 17 20 16 21 15 22 14 22 13 23 12 24 10 24 9 25 8 25 7 26 5 26 4 27 2 27 1 27 -101 0 -1 -22 -2 -22 -3 -21 -4 -21 -5 -21 -6 -20 -7 -20 -8 -20 -9 -19 -10 -19 -11 -18 -12 -18 -13 -17 -14 -17 -15 -16 -16 -15 -16 -15 -17 -14 -18 -13 -18 -12 -19 -12 -19 -11 -20 -10 -20 -9 -21 -8 -21 -7 -22 -6 -22 -5 -22 -4 -23 -3 -23 -2 -23 0 0 0z"/>
   </g>
   <g>
    <path class="fil0" d="M567 1591c-296,1 -500,214 -499,520 1,275 228,483 526,482 253,-1 479,-237 479,-499 -1,-288 -218,-503 -506,-502z"/>
    <path id="1" class="fil1" d="M119 2111l-101 0 0 0 1 -31 2 -30 3 -29 4 -29 6 -28 7 -28 8 -27 9 -26 10 -26 11 -25 13 -24 14 -23 15 -22 16 -21 17 -21 18 -20 19 -19 20 -18 21 -17 22 -15 22 -14 23 -13 24 -12 25 -11 26 -10 26 -8 27 -7 27 -6 28 -5 29 -3 29 -2 30 -1 0 101 -25 1 -25 2 -24 3 -23 4 -23 5 -22 6 -21 7 -21 8 -20 9 -19 10 -19 11 -18 12 -17 12 -17 13 -16 14 -15 15 -14 16 -14 16 -13 17 -12 18 -11 19 -10 20 -9 20 -8 21 -8 22 -7 22 -6 23 -5 24 -4 24 -3 25 -2 26 0 26 0 0zm476 432l0 101 0 0 -30 -1 -30 -2 -29 -3 -29 -4 -28 -6 -27 -7 -27 -8 -26 -9 -26 -10 -25 -11 -24 -12 -23 -13 -23 -14 -22 -15 -21 -16 -20 -17 -19 -18 -18 -19 -17 -20 -16 -21 -15 -22 -14 -22 -13 -23 -11 -24 -10 -25 -9 -25 -8 -26 -6 -26 -5 -27 -4 -27 -2 -28 -1 -28 101 0 1 23 2 23 3 22 4 22 5 21 6 21 7 20 8 20 9 19 10 19 11 18 12 17 13 17 14 16 15 16 15 15 16 14 17 13 18 13 18 12 19 11 20 10 21 9 21 8 22 8 22 7 23 6 24 5 24 4 25 3 25 2 26 0 0 0zm429 -449l101 0 0 0 -1 27 -2 27 -3 27 -5 26 -6 26 -7 26 -9 25 -10 25 -11 24 -12 23 -13 23 -14 22 -15 22 -16 21 -17 20 -18 19 -18 18 -19 18 -20 17 -21 16 -21 15 -22 14 -23 13 -23 12 -24 10 -24 9 -25 8 -25 7 -26 5 -26 4 -26 2 -27 1 0 -101 21 -1 21 -2 21 -3 20 -4 20 -5 20 -6 20 -7 19 -8 19 -9 18 -10 18 -11 18 -12 17 -13 17 -14 16 -14 15 -15 15 -16 14 -17 13 -17 12 -18 12 -18 11 -19 10 -19 9 -20 8 -20 7 -20 6 -21 5 -21 4 -21 3 -21 2 -22 1 -22 0 0zm-456 -452l0 -101 0 0 29 1 29 2 28 3 28 5 27 6 27 7 26 8 25 10 25 11 24 12 23 13 23 14 22 15 21 16 20 17 19 18 18 19 17 20 16 21 15 22 14 22 13 23 12 24 11 25 10 25 9 26 7 27 6 27 5 28 3 28 2 29 1 29 -101 0 -1 -24 -2 -24 -3 -23 -4 -23 -5 -22 -6 -22 -7 -21 -8 -21 -9 -20 -10 -20 -11 -19 -12 -18 -12 -18 -13 -17 -14 -16 -15 -15 -16 -15 -16 -14 -17 -13 -18 -12 -18 -11 -19 -11 -20 -10 -20 -9 -21 -8 -21 -7 -22 -6 -23 -5 -23 -4 -24 -3 -24 -2 -25 0 0 0z"/>
   </g>
   <g>
    <path class="fil0" d="M5234 2098c-3,273 225,500 503,502 280,2 498,-212 502,-492 4,-291 -212,-513 -504,-516 -276,-3 -498,221 -501,507z"/>
    <path id="1" class="fil1" d="M5737 2550l-1 101 0 0 -28 -1 -28 -2 -28 -4 -27 -5 -27 -6 -26 -8 -26 -9 -25 -10 -25 -11 -24 -12 -23 -13 -23 -14 -22 -16 -21 -16 -20 -17 -19 -18 -18 -19 -17 -20 -16 -21 -15 -22 -14 -22 -13 -23 -12 -24 -11 -24 -10 -25 -9 -26 -7 -26 -6 -27 -5 -27 -3 -27 -2 -28 0 -28 100 1 0 23 2 22 3 22 4 22 5 22 6 21 7 21 8 20 9 20 10 19 11 19 12 18 13 18 13 17 14 16 15 16 16 15 17 14 17 14 18 13 18 12 19 11 20 10 20 9 21 8 21 7 22 6 22 5 22 4 23 3 23 2 23 1 0 0zm452 -443l100 1 0 0 -1 28 -2 28 -4 28 -5 27 -6 27 -8 26 -9 25 -10 25 -11 24 -12 24 -13 23 -14 22 -15 21 -16 20 -17 20 -18 19 -19 18 -20 17 -21 16 -22 15 -22 14 -23 13 -24 12 -24 11 -25 9 -26 8 -26 7 -27 6 -27 5 -28 3 -28 2 -28 1 1 -101 24 0 23 -2 23 -3 22 -4 22 -5 21 -6 21 -7 20 -8 20 -9 19 -10 19 -10 18 -11 18 -12 17 -13 16 -14 15 -14 15 -15 14 -16 13 -17 12 -17 12 -18 11 -19 10 -19 9 -20 8 -20 7 -21 6 -21 5 -22 4 -22 3 -23 2 -23 1 -24 0 0zm-454 -465l1 -100 0 0 29 1 29 2 29 4 28 5 27 6 27 8 26 9 26 10 25 11 24 12 23 14 23 15 22 16 21 17 20 18 19 19 18 20 17 20 16 21 15 22 14 23 13 24 12 24 11 25 9 26 8 26 7 27 6 28 4 28 3 29 2 29 0 29 -100 -1 0 -25 -1 -24 -3 -24 -4 -23 -5 -23 -6 -22 -7 -22 -8 -21 -9 -21 -10 -20 -11 -19 -11 -19 -12 -18 -13 -17 -14 -17 -15 -16 -16 -15 -16 -14 -17 -14 -18 -13 -18 -12 -19 -11 -20 -10 -20 -9 -21 -8 -22 -7 -22 -6 -23 -5 -23 -4 -24 -3 -24 -2 -25 -1 0 0zm-450 457l-100 -1 0 0 1 -29 2 -29 4 -28 5 -28 6 -27 8 -27 9 -26 10 -26 11 -25 12 -24 13 -23 14 -23 15 -22 16 -21 17 -20 18 -19 19 -18 20 -17 21 -16 22 -15 22 -14 23 -13 24 -12 24 -11 25 -10 26 -9 26 -7 27 -6 27 -5 28 -3 28 -2 28 0 -1 100 -23 0 -23 1 -22 3 -22 4 -22 5 -21 6 -21 7 -20 8 -20 9 -19 10 -19 11 -18 12 -18 13 -17 13 -16 14 -16 15 -15 16 -14 17 -13 17 -13 18 -12 19 -11 19 -10 20 -9 20 -8 21 -7 22 -6 22 -5 23 -4 23 -3 23 -2 24 -1 24 0 0z"/>
   </g>
   <g>
    <path class="fil0" d="M5740 4568c-274,-2 -504,223 -506,495 -2,275 225,509 497,511 282,2 507,-225 508,-511 1,-268 -225,-493 -499,-495z"/>
    <path id="1" class="fil1" d="M5284 5064l-101 -1 0 0 1 -28 2 -28 4 -27 5 -27 6 -26 8 -26 9 -25 10 -25 11 -24 13 -24 14 -23 15 -22 16 -21 17 -21 18 -20 19 -19 19 -18 20 -17 21 -16 22 -15 23 -14 23 -13 24 -12 24 -11 25 -10 26 -9 26 -7 27 -6 27 -5 27 -3 28 -2 28 -1 -1 101 -23 0 -23 2 -22 3 -22 4 -22 5 -21 6 -21 7 -21 8 -20 9 -20 10 -19 11 -18 12 -18 13 -17 13 -17 14 -16 15 -15 16 -14 16 -14 17 -13 18 -12 18 -11 19 -10 19 -9 20 -8 20 -7 21 -6 21 -5 21 -4 22 -3 22 -2 22 -1 23 0 0zm447 460l-1 101 0 0 -28 -1 -28 -2 -27 -4 -27 -5 -26 -7 -26 -8 -25 -9 -25 -10 -24 -12 -24 -13 -23 -14 -22 -15 -21 -16 -21 -17 -20 -18 -19 -19 -18 -20 -17 -20 -16 -21 -15 -22 -14 -23 -13 -23 -12 -24 -11 -25 -10 -25 -9 -26 -7 -26 -6 -27 -5 -27 -3 -28 -2 -28 0 -28 101 1 0 23 2 23 3 23 4 22 5 22 6 22 7 21 8 21 9 20 10 20 11 19 12 19 13 18 13 17 14 17 15 16 16 15 16 15 17 14 18 13 18 12 19 11 19 10 20 9 20 8 21 7 21 6 21 5 22 4 22 3 22 2 23 1 0 0zm458 -461l101 0 0 0 -1 29 -2 29 -4 28 -5 28 -6 27 -8 27 -9 26 -10 26 -11 25 -12 24 -13 24 -14 23 -16 22 -17 21 -18 20 -18 19 -19 19 -20 18 -21 17 -22 16 -23 15 -23 13 -24 12 -25 11 -25 10 -26 9 -27 7 -27 6 -28 5 -28 3 -28 2 -29 1 1 -101 24 0 23 -2 23 -3 23 -4 22 -5 22 -6 21 -7 21 -8 20 -9 20 -10 19 -11 19 -12 18 -13 17 -14 17 -14 16 -15 15 -16 14 -17 14 -17 13 -18 12 -19 11 -19 10 -20 9 -21 8 -21 7 -22 6 -22 5 -23 4 -23 3 -23 2 -24 1 -24 0 0zm-449 -444l1 -101 0 0 28 1 28 2 27 4 27 5 26 6 26 8 25 9 25 10 24 11 24 12 23 13 22 14 22 15 21 16 20 17 19 18 18 19 17 20 16 21 15 21 14 22 13 23 12 23 11 24 10 25 9 25 7 26 6 26 5 27 3 27 2 27 1 28 -101 0 -1 -22 -2 -22 -3 -22 -4 -22 -5 -21 -6 -21 -7 -20 -8 -20 -9 -20 -10 -19 -11 -19 -12 -18 -13 -17 -13 -17 -14 -16 -15 -16 -16 -15 -16 -14 -17 -13 -18 -13 -18 -12 -19 -11 -19 -10 -20 -9 -20 -8 -21 -7 -21 -6 -22 -5 -22 -4 -22 -3 -23 -2 -23 -1 0 0z"/>
   </g>
   <g>
    <path class="fil0" d="M3129 6074c-267,-1 -491,226 -492,498 -1,264 230,498 494,501 276,3 509,-226 511,-501 2,-270 -232,-497 -513,-498z"/>
    <path id="1" class="fil1" d="M2688 6572l-101 0 0 0 1 -28 2 -28 4 -27 5 -27 6 -26 7 -26 9 -25 10 -25 11 -24 12 -24 13 -23 14 -22 15 -22 16 -21 17 -20 18 -19 19 -18 20 -17 20 -16 21 -15 22 -14 23 -13 23 -12 24 -11 25 -10 25 -9 26 -7 26 -6 27 -5 27 -3 27 -2 28 -1 0 101 -22 0 -22 2 -22 3 -21 4 -21 5 -21 6 -20 7 -20 8 -19 9 -19 10 -18 11 -18 12 -17 13 -17 13 -16 14 -15 15 -15 16 -14 16 -13 17 -12 18 -12 18 -11 19 -10 19 -9 20 -8 20 -7 21 -6 21 -5 22 -4 22 -3 22 -2 23 -1 23 0 0zm444 451l-1 100 0 0 -27 -1 -27 -3 -27 -4 -26 -5 -26 -7 -26 -8 -25 -9 -25 -10 -24 -12 -23 -13 -23 -14 -22 -15 -21 -16 -21 -17 -20 -18 -19 -18 -18 -19 -17 -20 -16 -21 -15 -22 -14 -22 -13 -23 -12 -24 -11 -24 -10 -25 -9 -25 -8 -26 -6 -26 -5 -26 -4 -27 -2 -27 -1 -27 101 0 1 22 2 22 3 22 4 21 5 21 6 21 7 20 8 20 9 20 10 19 11 19 12 18 13 18 14 17 14 17 15 16 16 15 16 15 17 14 18 13 18 12 19 11 19 10 20 9 20 8 20 7 21 6 21 5 21 4 21 3 22 2 22 1 0 0zm460 -451l101 1 0 0 -1 28 -2 28 -4 28 -5 27 -7 27 -8 26 -9 26 -10 25 -12 24 -13 24 -14 23 -15 22 -16 22 -17 21 -18 20 -19 19 -20 18 -20 17 -21 16 -22 15 -23 14 -23 13 -24 12 -25 11 -25 10 -26 9 -26 7 -27 6 -27 5 -28 3 -28 2 -28 0 1 -100 23 0 23 -2 23 -3 22 -4 22 -5 22 -6 21 -7 21 -8 20 -9 20 -10 19 -11 19 -12 18 -13 17 -14 17 -14 16 -15 15 -16 15 -17 14 -17 13 -18 12 -18 11 -19 10 -20 9 -20 8 -21 7 -21 6 -21 5 -22 4 -22 3 -22 2 -23 1 -23 0 0zm-463 -447l0 -101 0 0 29 1 28 2 28 4 28 5 27 6 27 8 26 9 26 10 25 11 24 12 24 13 23 14 22 15 21 16 21 17 20 18 19 19 18 20 17 21 16 21 15 22 14 23 13 24 11 24 10 25 9 25 8 26 6 26 5 27 3 27 2 28 1 28 -101 -1 0 -22 -2 -22 -3 -22 -4 -22 -5 -21 -6 -21 -7 -21 -8 -20 -9 -20 -10 -19 -11 -19 -12 -18 -13 -18 -14 -17 -15 -16 -15 -16 -16 -15 -17 -14 -18 -13 -18 -13 -19 -12 -20 -11 -20 -10 -21 -9 -21 -8 -22 -7 -22 -6 -22 -5 -23 -4 -23 -3 -23 -2 -24 -1 0 0z"/>
   </g>
   <g>
    <path class="fil0" d="M2637 578c-2,279 225,503 509,504 268,1 495,-228 496,-500 1,-280 -231,-505 -522,-506 -255,-1 -481,233 -483,501z"/>
    <path id="1" class="fil1" d="M3147 1032l0 101 0 0 -29 -1 -29 -2 -28 -4 -28 -5 -27 -6 -27 -8 -26 -9 -26 -10 -25 -11 -24 -12 -23 -13 -23 -14 -22 -15 -21 -16 -20 -17 -19 -18 -19 -19 -18 -20 -17 -21 -16 -22 -15 -23 -13 -23 -12 -24 -11 -25 -10 -25 -9 -26 -7 -26 -6 -27 -5 -27 -3 -28 -2 -28 -1 -29 101 1 0 23 2 23 3 23 4 22 5 22 6 21 7 21 8 21 9 20 10 20 11 19 12 18 13 18 14 17 14 16 15 16 16 15 17 14 17 13 18 13 19 12 19 11 20 10 20 9 21 8 21 7 22 6 22 5 23 4 23 3 24 2 24 1 0 0zm445 -450l101 0 0 0 -1 28 -2 28 -4 27 -5 27 -6 26 -8 26 -9 25 -10 25 -11 24 -12 24 -13 23 -14 22 -15 22 -16 21 -17 20 -18 19 -19 18 -20 17 -21 16 -21 15 -22 14 -23 13 -23 12 -24 11 -25 10 -25 9 -26 8 -26 6 -27 5 -27 4 -27 2 -28 1 0 -101 22 -1 22 -2 22 -3 21 -4 21 -5 21 -6 20 -7 20 -8 20 -9 19 -10 19 -11 18 -12 18 -13 17 -13 16 -14 16 -15 15 -16 14 -16 13 -17 13 -18 12 -18 11 -19 10 -19 9 -20 8 -20 7 -21 6 -21 5 -22 4 -22 3 -22 2 -23 1 -23 0 0zm-472 -455l0 -101 0 0 30 1 29 2 29 4 28 5 28 6 27 7 27 9 26 10 25 11 25 12 24 13 23 14 22 15 22 16 21 17 20 18 19 19 18 20 17 21 16 22 15 23 14 23 13 24 11 25 10 25 9 26 8 26 6 27 5 27 4 28 2 28 1 29 -101 0 -1 -23 -2 -23 -3 -23 -4 -22 -5 -22 -6 -21 -7 -21 -8 -21 -9 -20 -10 -20 -11 -19 -12 -18 -13 -18 -14 -17 -15 -17 -16 -16 -16 -15 -17 -14 -18 -14 -18 -13 -19 -12 -20 -11 -20 -10 -21 -9 -22 -8 -22 -7 -23 -6 -23 -5 -24 -4 -24 -3 -24 -2 -25 -1 0 0zm-432 451l-101 -1 0 0 1 -28 2 -27 4 -27 5 -27 6 -26 8 -26 9 -25 10 -25 11 -24 12 -24 13 -23 14 -22 15 -22 16 -21 17 -20 18 -19 19 -18 19 -18 20 -17 21 -16 22 -15 22 -14 23 -13 23 -11 24 -10 24 -9 25 -8 25 -6 26 -5 26 -4 26 -2 27 -1 0 101 -21 1 -21 2 -21 3 -20 4 -20 5 -20 6 -20 7 -19 8 -19 9 -19 10 -18 11 -18 12 -17 13 -17 14 -16 14 -15 15 -15 16 -14 17 -13 17 -12 18 -12 18 -11 19 -10 20 -9 20 -8 20 -7 21 -6 21 -5 21 -4 22 -3 22 -2 22 -1 22 0 0z"/>
   </g>
   <g>
    <polygon class="fil2" points="3573,3395 3140,1712 2690,3383 "/>
    <path id="1" class="fil1" d="M3109 1720l0 -16 61 0 434 1683 -61 16 -434 -1683zm0 -16l31 -115 30 115 -61 0zm-389 1687l-31 23 -30 -39 450 -1671 61 16 -450 1671zm-31 23l-40 -1 10 -39 30 39zm884 -51l30 24 -31 39 -883 -12 1 -63 883 12zm30 24l10 40 -41 -1 31 -39z"/>
   </g>
   <g>
    <polygon class="fil3" points="3589,3788 3155,5470 2705,3800 "/>
    <path id="1" class="fil1" d="M3125 5463l434 -1683 61 16 -434 1683 -61 0 0 -16zm61 16l-30 115 -31 -115 61 0zm-450 -1687l450 1671 -61 16 -450 -1671 30 -39 31 23zm-61 16l-10 -39 40 -1 -30 39zm914 12l-883 12 -1 -63 883 -12 31 39 -30 24zm-1 -63l41 -1 -10 40 -31 -39z"/>
   </g>
   <g>
    <polygon class="fil3" points="3525,3871 4772,2662 3098,3098 "/>
    <path id="1" class="fil1" d="M4751 2640l14 -8 30 53 -1248 1209 -44 -45 1248 -1209zm14 -8l115 -30 -86 83 -30 -53zm-1659 497l-35 -15 20 -46 1675 -436 16 61 -1675 436zm-35 -15l-20 -35 39 -10 -20 46zm482 743l-6 38 -49 -7 -427 -773 55 -30 427 773zm-6 38l-29 29 -20 -36 49 7z"/>
   </g>
   <g>
    <polygon class="fil2" points="3191,4079 1514,4535 2744,3317 "/>
    <path id="1" class="fil1" d="M1506 4505l1677 -456 17 61 -1677 456 -30 -53 14 -8zm17 61l-115 31 85 -84 30 53zm1243 -1225l-1230 1218 -44 -45 1230 -1218 49 6 -5 38zm-44 -45l29 -28 20 35 -49 -6zm442 800l-447 -762 54 -32 447 762 -19 46 -35 -14zm54 -32l21 35 -40 11 19 -46z"/>
   </g>
   <g>
    <polygon class="fil2" points="3525,3326 4772,4535 3098,4099 "/>
    <path id="1" class="fil1" d="M4751 4557l-1248 -1209 44 -45 1248 1209 -30 53 -14 -8zm44 -45l86 83 -115 -30 30 -53zm-1689 -444l1675 436 -16 61 -1675 -436 -20 -46 35 -15zm-16 61l-39 -10 20 -35 20 46zm462 -789l-427 773 -55 -30 427 -773 49 -7 6 38zm-55 -30l20 -36 29 29 -49 7z"/>
   </g>
   <g>
    <polygon class="fil3" points="3191,3118 1514,2662 2744,3880 "/>
    <path id="1" class="fil1" d="M1506 2692l-14 -8 30 -53 1677 456 -17 61 -1677 -456zm-14 -8l-85 -84 115 31 -30 53zm1274 1173l5 38 -49 6 -1230 -1218 44 -45 1230 1218zm5 38l-20 35 -29 -28 49 -6zm393 -794l35 -14 19 46 -447 762 -54 -32 447 -762zm35 -14l40 11 -21 35 -19 -46z"/>
   </g>
   <g>
    <path class="fil0" d="M2629 3579c-2,279 225,503 509,504 268,1 495,-228 496,-500 1,-280 -231,-504 -522,-506 -255,-1 -481,233 -483,501z"/>
    <path id="1" class="fil1" d="M3138 4052l0 63 0 0 -28 -1 -28 -2 -27 -3 -27 -5 -26 -6 -26 -7 -25 -8 -25 -10 -24 -11 -23 -12 -23 -13 -22 -14 -21 -15 -20 -16 -20 -17 -19 -18 -18 -19 -17 -19 -16 -20 -15 -21 -14 -22 -13 -22 -12 -23 -11 -24 -10 -24 -8 -25 -7 -25 -6 -26 -5 -26 -3 -27 -2 -27 -1 -28 63 0 0 24 2 24 3 24 4 23 5 23 6 22 7 22 8 21 9 21 10 20 11 20 12 19 13 19 14 18 15 17 16 16 17 16 17 15 18 14 19 13 19 12 20 11 21 10 21 9 22 9 22 7 23 6 23 5 24 4 24 3 25 2 25 1 0 0zm464 -469l63 0 0 0 -1 27 -2 27 -4 26 -5 26 -6 26 -7 25 -8 25 -10 24 -11 24 -12 23 -13 22 -14 22 -15 21 -16 20 -17 19 -18 19 -18 18 -19 17 -20 16 -21 15 -21 14 -22 13 -23 12 -23 11 -24 10 -24 8 -25 7 -25 6 -26 5 -26 3 -26 2 -27 1 0 -63 23 -1 23 -2 23 -3 22 -4 22 -5 22 -6 21 -7 21 -8 20 -9 20 -10 19 -11 19 -12 18 -13 18 -14 17 -15 16 -16 16 -16 15 -17 14 -18 13 -18 12 -19 11 -20 10 -20 10 -21 9 -21 7 -22 6 -22 5 -22 4 -23 3 -23 2 -23 1 -24 0 0zm-491 -474l0 -63 0 0 29 1 28 2 28 3 27 5 27 6 26 7 26 8 25 10 25 11 24 12 23 13 22 14 22 15 21 16 20 17 19 18 18 19 17 19 16 20 15 21 14 22 13 22 12 23 11 24 10 24 9 25 7 26 6 26 5 27 3 27 2 27 1 28 -63 0 -1 -24 -2 -24 -3 -24 -4 -23 -5 -23 -6 -22 -8 -22 -9 -21 -10 -21 -11 -20 -12 -20 -13 -19 -14 -19 -14 -18 -15 -17 -16 -16 -17 -16 -18 -15 -19 -14 -19 -13 -20 -12 -21 -11 -21 -10 -22 -10 -22 -9 -23 -8 -23 -6 -24 -5 -24 -4 -25 -3 -25 -2 -26 -1 0 0zm-451 470l-63 0 0 0 1 -27 2 -26 4 -26 5 -26 6 -25 7 -25 8 -24 10 -24 11 -23 12 -23 13 -22 14 -22 15 -21 16 -20 16 -19 17 -19 18 -18 19 -17 19 -16 20 -15 21 -14 21 -13 22 -12 23 -11 23 -10 24 -9 24 -7 24 -6 25 -5 25 -3 25 -2 26 -1 0 63 -22 1 -22 2 -22 3 -21 4 -21 5 -21 6 -21 8 -20 9 -20 10 -19 11 -19 12 -18 12 -18 13 -17 14 -17 15 -16 16 -15 17 -15 17 -14 18 -13 19 -12 19 -11 20 -10 20 -9 21 -8 21 -7 22 -6 22 -5 22 -4 23 -3 23 -2 23 -1 23 0 0z"/>
   </g>
  </g>
 </g>
</svg>
